<svg height="504pt" viewBox="0 0 504.38184 504" width="504pt" xmlns="http://www.w3.org/2000/svg"><path d="m464.507812 462.152344c-19.964843 9.863281-40.851562 17.738281-62.363281 23.5h-.082031c-18.40625 4.882812-37.238281 7.976562-56.238281 9.234375-21.15625 1.25-42.386719.09375-63.285157-3.441407-75.542968-12.671874-142.4375-54.640624-197.917968-106.007812-27.773438-24.457031-50.570313-54.039062-67.148438-87.125-15.886718-35.820312-10.167968-77.546875 14.773438-107.773438 6.664062-8.597656 14.519531-16.199218 23.335937-22.578124-23.671875-47.925782-23.335937-72.855469-19.808593-91.90625 4.496093-24.253907 19-45.488282 39.949218-58.503907 3.546875-2.328125 7.21875-4.457031 10.996094-6.378906 3.882812-1.992187 8.242188-2.863281 12.589844-2.515625 12.257812 1.339844 19.558594 5.371094 20.902344 14.351562.980468 8.488282-3.730469 16.613282-11.585938 19.976563-9.855469 4.429687-18.667969 10.894531-25.851562 18.96875-6.976563 11.429687-9.683594 24.957031-7.636719 38.191406.867187 8.519531 2.496093 16.949219 4.867187 25.179688 1.261719 4.699219 2.6875 9.316406 4.199219 14.015625 1.160156 4.15625 2.621094 8.222656 4.363281 12.171875l.085938.082031c.164062-.082031.25-.082031.417968-.167969 19.699219-9.746093 42.234376-12.128906 63.539063-6.714843 3.1875.925781 6.628906 1.847656 10.070313 3.023437 3.214843.929687 6.316406 2.222656 9.234374 3.859375 6.574219 3.726562 12.886719 7.90625 18.882813 12.507812.242187.148438.464844.316407.671875.503907 56.574219 43.226562 94.09375 123.382812 107.269531 202.199219 1.511719.585937 3.023438 1.171874 4.449219 1.761718.152344.578125.265625 1.167969.335938 1.761719 20.277343 7.261719 39.585937 16.984375 57.496093 28.957031.523438.257813 1.007813.597656 1.425781 1.007813 9.84375 7.582031 18.042969 17.09375 24.089844 27.949219.839844-.082032 1.761719-.167969 2.601563-.25.753906 1.257812 1.511719 2.515624 2.179687 3.777343 31.5625-2.769531 60.769532-3.191406 80.328125 5.371094l1.257813.753906.082031-.082031c8.730469 7.21875 8.480469 15.105469-8.476563 24.339844zm0 0" fill="#cad9fc"/><path d="m437.734375 470.546875c-11.566406 5.707031-23.449219 10.75-35.589844 15.105469h-.082031c-18.40625 4.882812-37.238281 7.976562-56.238281 9.234375-21.15625 1.25-42.386719.09375-63.285157-3.441407-75.542968-12.671874-142.4375-54.640624-197.917968-106.007812-27.773438-24.457031-50.570313-54.039062-67.148438-87.125-15.886718-35.820312-10.167968-77.546875 14.773438-107.773438 6.664062-8.597656 14.519531-16.199218 23.335937-22.578124-23.671875-47.925782-23.335937-72.855469-19.808593-91.90625 4.496093-24.253907 19-45.488282 39.949218-58.503907 10.324219 1.597657 16.453125 5.707031 17.710938 13.851563.980468 8.484375-3.726563 16.609375-11.582032 19.976562-9.859374 4.425782-18.667968 10.890625-25.851562 18.96875-6.976562 11.425782-9.683594 24.957032-7.636719 38.1875.867188 8.523438 2.496094 16.949219 4.867188 25.183594 1.257812 4.699219 2.6875 9.316406 4.195312 14.015625 1.132813 4.203125 2.621094 8.304687 4.449219 12.253906 8.523438-3.894531 17.484375-6.738281 26.691406-8.476562.160156-.070313.332032-.097657.503906-.085938 12.222657-2.246093 24.796876-1.671875 36.761719 1.679688 3.191407.925781 6.632813 1.847656 10.074219 3.023437 3.214844.925782 6.3125 2.222656 9.230469 3.859375 6.578125 3.726563 12.886719 7.90625 18.886719 12.507813.238281.144531.464843.316406.671874.503906 56.570313 43.226562 94.089844 123.382812 107.269532 202.195312 1.507812.589844 3.019531 1.175782 4.445312 1.765626.152344.578124.265625 1.167968.335938 1.761718 20.28125 7.261719 39.589844 16.984375 57.496094 28.957032.527343.257812 1.007812.597656 1.425781 1.007812 9.847656 7.582031 18.042969 17.09375 24.089843 27.949219.839844-.085938 1.761719-.167969 2.601563-.253907.757813 1.261719 1.511719 2.519532 2.183594 3.777344 31.558593-2.769531 60.769531-3.1875 80.324219 5.375l1.261718.753906.082032-.085937c8.730468 7.21875 8.476562 15.109375-8.476563 24.34375zm0 0" fill="#e8edfc"/><path d="m303.1875 368.566406c20.625 7.472656 40.09375 17.8125 57.832031 30.71875-17.910156-11.972656-37.21875-21.695312-57.496093-28.957031-.070313-.59375-.183594-1.183594-.335938-1.761719zm0 0" fill="#c03a2b"/><path d="m472.984375 437.8125-.082031.082031-1.257813-.753906c-19.558593-8.5625-48.765625-8.140625-80.328125-5.371094-.667968-1.261719-1.425781-2.519531-2.179687-3.777343 30.550781-2.519532 58.667969-2.6875 77.722656 5.621093 2.164063 1.210938 4.214844 2.617188 6.125 4.199219zm0 0" fill="#c03a2b"/><path d="m495.984375 77.734375c-30.917969 27.28125-49.078125 66.210937-50.109375 107.433594-.753906 32.734375 1.257812 67.988281-8.980469 99.546875-13.011719 40.457031-57.410156 64.796875-98.121093 67.148437-5.859376-4.339843-10.84375-9.75-14.6875-15.949219-1.195313-1.707031-2.15625-3.570312-2.851563-5.539062l4.867187-.335938c21.90625-7.804687 33.910157-22.492187 43.730469-56.90625-11.484375 4.683594-23.296875 8.527344-35.335937 11.5-4.910156 1.167969-9.90625 1.925782-14.941406 2.265626-3.667969.28125-7.359376.140624-10.996094-.421876-.300782.007813-.59375-.078124-.839844-.25-.160156-.164062-.273438-.367187-.335938-.589843-1.007812-2.347657-1.59375-4.949219-2.433593-7.300781-.921875-2.351563-1.847657-4.785157-2.855469-7.132813-.164062-.421875-.332031-.757813-.5-1.175781-2.183594-5.457032-4.535156-10.828125-7.050781-16.199219-.132813-.292969-.21875-.605469-.253907-.925781-.25-1.507813 1.761719-4.027344 2.6875-5.285156 1.207032-1.628907 2.652344-3.074219 4.28125-4.28125 4.945313-3.347657 10.960938-4.722657 16.871094-3.863282 70.585938 9.488282 94.59375-15.863281 94.59375-59.507812 0-1.257813-.085937-2.519532-.085937-3.859375-7.933594 9.246093-17.984375 16.445312-29.292969 20.980469-.839844.253906-1.761719.503906-2.601562.757812-11.109376 1.578125-22.4375-.050781-32.652344-4.699219-9.902344-3.355469-20.027344-6.019531-30.296875-7.976562-13.214844-1.886719-26.613281-2.054688-39.871094-.503907-5.058594.308594-10.136719.28125-15.191406-.082031-3.585938-.40625-7.144531-1.019531-10.660157-1.847656-.320312-.03125-.628906-.117187-.921874-.25-1.085938-.867187-1.972657-1.953125-2.601563-3.191406-1.09375-1.257813-2.183594-2.601563-3.359375-3.945313-1.511719-1.84375-3.105469-3.609375-4.699219-5.371094-1.847656-1.929687-3.695312-3.859374-5.625-5.792968-1.007812-1.171875-2.179687-2.347656-3.441406-3.605469-.671875-10.914063 11.75-23.503906 22.410156-36.765625-15.011719-4.902344-31.503906-1.125-42.890625 9.820312-2.914062 2.855469-7.433594 3.273438-10.824218 1.007813-4.449219-3.023437-8.984376-5.875-13.683594-8.5625-2.601563-1.480469-5.292969-2.800781-8.058594-3.945313-.96875-.375-1.855469-.949218-2.601562-1.675781-.082032 0-.082032 0-.082032-.085937-2.59375-2.351563-3.433594-6.078125-2.097656-9.316406 20.144531-51.535157 80.324219-76.378907 162.242188-54.472657 10.746093 2.804688 21.3125 6.25 31.644531 10.324219-33.070313 22.324219-38.023438 45.574219-29.375 60.179688 11.832031 19.808593 48.679687 23.671874 74.867187-11.835938 9.121094-14.046875 22.421875-24.878906 38.023438-30.96875 14.683594-3.964844 29.785156-6.164062 44.988281-6.546875zm0 0" fill="#cad9fc"/><path d="m450.996094 84.28125c-19.246094 24.640625-29.992188 54.855469-30.636719 86.117188-.085937 3.1875-.085937 6.378906-.167969 9.652343-.335937 29.960938.417969 61.4375-8.8125 89.890625-11.835937 36.847656-49.773437 60.351563-87.292968 65.972656-1.195313-1.707031-2.15625-3.570312-2.851563-5.539062l4.867187-.335938c21.90625-7.804687 33.910157-22.492187 43.730469-56.90625-11.484375 4.683594-23.296875 8.527344-35.335937 11.5 3.609375-7.136718 32.230468-5.375 35.25-15.863281-13.890625 4.292969-64.109375-23.796875-67.652344 2.433594-.164062-.421875-.332031-.757813-.5-1.175781-2.183594-5.457032-4.535156-10.828125-7.050781-16.199219-.132813-.292969-.21875-.605469-.253907-.925781-.25-1.507813 1.761719-4.027344 2.6875-5.285156 1.207032-1.628907 2.652344-3.074219 4.28125-4.28125 4.945313-3.347657 10.960938-4.722657 16.871094-3.863282 70.585938 9.488282 94.59375-15.863281 94.59375-59.507812 0-1.257813-.085937-2.519532-.085937-3.859375-7.933594 9.246093-17.984375 16.445312-29.292969 20.980469-.839844.253906-1.761719.503906-2.601562.757812 4.953124-10.074219-10.574219 9.484375-10.996094-4.617188-8.308594 8.5625-5.203125-3.777343-16.785156 0-12.253907 4.027344-18.71875-10.996093-30.386719-14.855468-9.902344-3.355469-20.027344-6.019532-30.300781-7.972656-13.210938-1.890626-26.609376-2.058594-39.867188-.503907-3.96875.238281-7.945312.265625-11.917969.082031-1.847656-1.929687-3.695312-3.859374-5.625-5.792968-1.007812-1.171875-2.179687-2.347656-3.441406-3.605469-.671875-10.914063 11.75-23.503906 22.410156-36.765625-15.011719-4.902344-31.503906-1.125-42.890625 9.820312-.660156.652344-1.425781 1.191407-2.265625 1.59375 4.113281-8.222656 36.175781-8.390624 43.5625-17.539062-25.179687-16.789062-57.160156-8.144531-66.8125 1.171875-2.589843 2.449219-6.410156 3.082031-9.652343 1.597656-.082032 0-.082032 0-.082032-.085937-2.59375-2.351563-3.433594-6.078125-2.097656-9.316406 20.144531-51.535157 80.324219-76.378907 162.242188-54.472657-44.230469 33.574219-27.191407 67.902344 2.269531 70.503907 11.832031 19.808593 48.679687 23.671874 74.867187-11.835938 9.121094-14.046875 22.421875-24.878906 38.023438-30.96875zm0 0" fill="#e8edfc"/><path d="m160.917969 226.214844c-5.917969-.539063-11.765625-1.664063-17.457031-3.359375-29.210938-8.308594-36.007813-27.699219-45.828126-28.203125-2.269531 4.449218-4.535156 8.980468-6.96875 13.347656-18.296874 33.65625-40.457031 61.269531-51.449218 38.1875-4.535156-9.230469-7.136719-26.855469-6.96875-55.648438v-.082031c6.6875-8.554687 14.539062-16.125 23.335937-22.496093-23.671875-47.925782-23.335937-72.855469-19.808593-91.90625 5.351562-28.371094 24.078124-52.414063 50.273437-64.546876.214844-.128906.441406-.238281.671875-.335937 3.882812-1.992187 8.242188-2.863281 12.589844-2.515625 12.257812 1.339844 19.558594 5.371094 20.902344 14.351562.980468 8.488282-3.730469 16.613282-11.585938 19.976563-9.855469 4.429687-18.667969 10.894531-25.851562 18.96875-6.976563 11.429687-9.683594 24.957031-7.636719 38.191406.867187 8.519531 2.496093 16.949219 4.867187 25.179688 1.261719 4.699219 2.6875 9.316406 4.199219 14.015625.167969.421875.753906 2.433594 1.507813 4.703125.613281 2.644531 1.601562 5.1875 2.941406 7.550781 9.328125-4.316406 19.21875-7.308594 29.375-8.894531 11.539062-1.800781 23.328125-1.113281 34.582031 2.011719 3.1875.925781 6.546875 1.847656 9.988281 3.023437-13.179687 19.976563-10.578125 41.882813 6.210938 65.386719 1.867187 2.710937 1.972656 6.265625.273437 9.085937-1.699219 2.820313-4.894531 4.386719-8.164062 4.007813zm0 0" fill="#cad9fc"/><path d="m143.460938 222.855469c-29.210938-8.308594-36.007813-27.699219-45.828126-28.203125-2.269531 4.449218-4.535156 8.980468-6.96875 13.347656-8.140624-6.800781 5.457032.25 0 0-10.070312 20.3125-37.183593 41.460938-48.261718 52.375-7.207032-22.5625-10.636719-46.15625-10.15625-69.835938v-.082031c6.6875-8.554687 14.539062-16.125 23.335937-22.496093-23.671875-47.925782-23.335937-72.855469-19.808593-91.90625 5.351562-28.371094 24.078124-52.414063 50.273437-64.546876 4.875 1.902344 8.316406 6.3125 8.984375 11.5.980469 8.488282-3.730469 16.613282-11.585938 19.976563-9.859374 4.429687-18.667968 10.894531-25.851562 18.96875-6.976562 11.429687-9.683594 24.957031-7.636719 38.191406.867188 8.519531 2.496094 16.949219 4.867188 25.179688 1.257812 4.699219 2.6875 9.316406 4.199219 14.015625 1.128906 4.203125 2.617187 8.304687 4.445312 12.253906 7.136719-3.277344 14.589844-5.808594 22.242188-7.550781 10.582031-2.546875 21.558593-3.003907 32.316406-1.34375 3.179687.429687 6.324218 1.101562 9.402344 2.011719 3.1875.925781 6.546874 1.847656 9.988281 3.023437-13.179688 19.976563-10.578125 41.882813 6.210937 65.386719 2.09375 2.925781 2.027344 6.878906-.167968 9.734375zm0 0" fill="#e8edfc"/><path d="m288.164062 308.550781c6.519532 19.597657 11.542969 39.660157 15.023438 60.015625-1.425781-.589844-2.9375-1.175781-4.449219-1.761718-13.175781-78.816407-50.695312-158.972657-107.269531-202.199219 44.152344 31.476562 77.054688 85.109375 96.695312 143.945312zm0 0" fill="#e64c3c"/><path d="m389.136719 427.992188c-.839844.082031-1.761719.167968-2.601563.25-6.046875-10.855469-14.246094-20.367188-24.089844-27.949219 10.675782 7.335937 19.753907 16.757812 26.691407 27.699219zm0 0" fill="#e64c3c"/><path d="m413.359375 426.609375c.300781.472656.671875.902344.957031 1.382813 6.414063-.53125 12.683594-.921876 18.816406-1.183594-6.285156-.351563-12.914062-.386719-19.773437-.199219zm0 0" fill="#fff"/><path d="m127.769531 141.796875c1.207031-.042969 2.417969 0 3.625.011719-1.207031-.003906-2.417969-.054688-3.625-.011719zm0 0" fill="#fff"/><path d="m122.972656 142.167969c-1.089844.101562-2.175781.167969-3.257812.308593 1.082031-.144531 2.171875-.207031 3.257812-.308593zm0 0" fill="#fff"/><path d="m84.621094 385.4375c55.480468 51.367188 122.375 93.335938 197.917968 106.007812 19.480469 3.265626 39.253907 4.464844 58.988282 3.574219-11.332032-.511719-22.621094-1.703125-33.808594-3.574219-75.539062-12.671874-142.4375-54.640624-197.917969-106.007812-27.769531-24.457031-50.570312-54.039062-67.144531-87.125-15.890625-35.820312-10.171875-77.546875 14.769531-107.773438v-.082031c9.492188-11.355469 20.121094-21.707031 31.726563-30.886719-23.667969-47.929687-23.332032-47.675781-19.808594-66.730468.757812-3.335938 1.636719-6.539063 2.613281-9.644532.46875-1.503906 1.035157-2.917968 1.558594-4.367187.574219-1.582031 1.132813-3.183594 1.777344-4.707031.640625-1.523438 1.363281-2.992188 2.074219-4.460938.660156-1.359375 1.328124-2.71875 2.050781-4.027344.792969-1.441406 1.648437-2.847656 2.519531-4.230468.789062-1.25 1.609375-2.476563 2.46875-3.683594.945312-1.335938 1.929688-2.660156 2.960938-3.941406.933593-1.15625 1.933593-2.28125 2.9375-3.394532 1.121093-1.242187 2.238281-2.492187 3.453124-3.6875 1.050782-1.03125 2.203126-2.015624 3.324219-3.011718 1.347657-1.199219 2.660157-2.417969 4.113281-3.566406.828126-.652344 1.761719-1.257813 2.625-1.890626 2.25-1.664062 4.558594-3.304687 7.058594-4.871093 2.503906-1.585938 5.121094-3.105469 7.882813-4.566407.28125-.148437.515625-.3125.800781-.460937-3.1875-1.441406-15.546875-19.15625-20.261719-19.671875-4.347656-.347656-8.707031.523438-12.589843 2.519531-.230469.09375-.457032.207031-.671876.335938-.300781.15625-.550781.335937-.851562.492187-2.761719 1.460938-5.378906 2.976563-7.882812 4.566406-2.5 1.5625-4.808594 3.203126-7.058594 4.867188-.863282.636719-1.796875 1.242188-2.625 1.894531-1.453125 1.144531-2.765625 2.367188-4.113282 3.5625-1.121093.996094-2.273437 1.980469-3.324218 3.011719-1.214844 1.195312-2.332032 2.445312-3.453125 3.6875-1.007813 1.117188-2.007813 2.238281-2.9375 3.394531-1.035157 1.285157-2.015625 2.601563-2.960938 3.941407-.855469 1.207031-1.679687 2.433593-2.46875 3.683593-.875 1.386719-1.730469 2.789063-2.523437 4.230469-.722656 1.3125-1.390625 2.671875-2.050782 4.03125-.710937 1.46875-1.433593 2.9375-2.074218 4.460938-.640625 1.523437-1.203125 3.121093-1.777344 4.707031-.523438 1.449219-1.089844 2.867187-1.558594 4.363281-.976562 3.105469-1.851562 6.3125-2.613281 9.648438-3.523437 19.050781-3.859375 43.980468 19.808594 91.90625-8.792969 6.371093-16.644531 13.941406-23.332031 22.496093v.082031c-24.941407 30.226563-30.660157 71.953126-14.769532 107.773438 16.578125 33.085938 39.375 62.667969 67.148438 87.125zm0 0" fill="#fff"/><path d="m141.730469 142.539062c-2.023438-.273437-4.050781-.53125-6.070313-.652343 2.019532.128906 4.046875.367187 6.070313.652343zm0 0" fill="#fff"/><path d="m110.894531 144.042969c2.421875-.558594 4.863281-.996094 7.308594-1.363281l-.175781.019531c-2.59375-.414063-5.207032-.695313-7.832032-.839844l.363282 1.160156c.109375.335938.214844.667969.335937 1.023438zm0 0" fill="#fff"/><path d="m206.234375 147.316406c-1.78125-.003906-3.515625-.570312-4.953125-1.625-6.105469-4.460937-12.457031-8.574218-19.019531-12.328125-4.507813-2.484375-9.257813-4.507812-14.171875-6.03125-2.878906-.921875-5.042969-3.320312-5.660156-6.277343-.617188-2.960938.402343-6.023438 2.671874-8.019532 2.269532-1.996094 5.433594-2.621094 8.292969-1.628906 5.992188 1.871094 11.773438 4.355469 17.257813 7.417969 7.09375 4.054687 13.957031 8.503906 20.554687 13.324219 2.929688 2.148437 4.148438 5.9375 3.015625 9.386718-1.132812 3.453125-4.355468 5.785156-7.988281 5.78125zm0 0" fill="#428dff"/><path d="m38.878906 195.691406c-10.4375 13.316406-17.511718 28.949219-20.621094 45.578125-3.039062 16.4375-1.339843 33.402344 4.894532 48.914063 15.988281 34.023437 38.859375 64.359375 67.171875 89.09375l-11.402344 12.320312c-30.148437-26.394531-54.449219-58.796875-71.339844-95.132812-7.417969-18.445313-9.445312-38.621094-5.851562-58.175782 3.589843-19.296874 11.785156-37.445312 23.890625-52.902343zm0 0" fill="#fff"/><g fill="#428dff"><path d="m12.925781 227.542969c4.257813 1.339843 8.839844-.757813 10.601563-4.859375 3.835937-9.667969 9.003906-18.753906 15.351562-26.992188l-13.253906-10.300781c-7.339844 9.511719-13.308594 20.011719-17.734375 31.183594-.886719 2.113281-.847656 4.503906.109375 6.589843.957031 2.085938 2.742188 3.671876 4.925781 4.378907zm0 0"/><path d="m78.921875 391.597656 11.402344-12.320312c-28.3125-24.734375-51.1875-55.074219-67.175781-89.097656-1.101563-2.320313-1.710938-4.808594-2.578126-7.210938-1.457031-4.1875-5.816406-6.617188-10.148437-5.660156-2.246094.519531-4.171875 1.964844-5.296875 3.976562-1.121094 2.015625-1.34375 4.414063-.601562 6.597656 1.007812 2.867188 1.785156 5.832032 3.0625 8.589844 16.890624 36.332032 41.1875 68.734375 71.335937 95.125zm0 0"/><path d="m16.933594 252.726562c.023437-2.078124-.675782-4.097656-1.976563-5.714843l-1.125-1.09375c-.429687-.363281-.898437-.667969-1.40625-.914063-.441406-.296875-.925781-.527344-1.433593-.683594-.539063-.167968-1.085938-.300781-1.640626-.394531-2.226562-.289062-4.476562.339844-6.234374 1.738281-.890626.753907-1.597657 1.695313-2.070313 2.761719-1.554687 3.265625-1 7.144531 1.40625 9.84375.796875.789063 1.746094 1.402344 2.792969 1.800781 1.011718.417969 2.101562.617188 3.199218.59375 2.203126-.121093 4.296876-.996093 5.925782-2.476562 1.445312-1.480469 2.347656-3.40625 2.5625-5.460938zm0 0"/><path d="m329.359375 503.765625c-16.160156 0-32.289063-1.355469-48.21875-4.046875-69.238281-11.609375-137.273437-47.992188-202.21875-108.125-3.402344-3.148438-3.605469-8.457031-.457031-11.859375 3.152344-3.402344 8.460937-3.609375 11.863281-.457031 62.503906 57.871094 127.640625 92.824218 193.601563 103.886718 20.277343 3.429688 40.871093 4.550782 61.398437 3.34375 40.222656-2.882812 79.476563-13.722656 115.480469-31.886718 8.28125-4.527344 9.394531-7.382813 9.464844-7.59375-.0625 0-.898438-2.164063-7.214844-5.910156-19.257813-8.207032-50.582032-6.734376-75.785156-4.511719-3.347657.261719-6.539063-1.464844-8.144532-4.414063-15.105468-28.378906-52.507812-45.660156-83.402344-57.554687-2.769531-1.066407-4.773437-3.519531-5.261718-6.453125-15.875-95.097656-62.886719-175.292969-122.699219-209.292969-2.386719-1.332031-4.921875-2.382813-7.550781-3.136719-2.75-.933594-5.253906-1.640625-7.652344-2.328125l-2.292969-.652343c-19.542969-4.882813-40.191406-2.582032-58.183593 6.480468-1.082032.484375-2.25.734375-3.433594.734375-6.800782 0-8.414063-5.210937-11.640625-15.59375l-.65625-2.082031c-1.695313-5.234375-3.164063-9.988281-4.453125-14.816406-2.496094-8.699219-4.210938-17.601563-5.121094-26.605469-2.304688-15.199219.925781-30.722656 9.109375-43.738281.167969-.234375.34375-.460938.53125-.679688 7.957031-8.957031 17.710937-16.140625 28.625-21.078125 4.445313-1.808593 7.222656-6.273437 6.878906-11.0625-.320312-2.132812-.894531-5.949219-13.523437-7.335937-2.746094-.164063-5.484375.417968-7.921875 1.6875-24.257813 10.949218-41.628907 33.0625-46.523438 59.222656-3.289062 17.820312-3.300781 40.882812 19.144531 86.339844 1.824219 3.683594.710938 8.140625-2.625 10.535156-8.164062 5.902344-15.441406 12.949219-21.605468 20.917969-1.832032 2.398437-4.808594 3.628906-7.800782 3.226562-2.992187-.40625-5.535156-2.386719-6.660156-5.1875-1.128906-2.800781-.664062-5.988281 1.214844-8.351562 5.703125-7.351563 12.222656-14.035157 19.425781-19.925781-21.59375-45.863282-21.25-70.828126-17.53125-90.933594 5.921875-31.167969 26.546875-57.550782 55.367188-70.816406 5.316406-2.722657 11.289062-3.902344 17.242187-3.410157 17.011719 1.863281 26.527344 9.082031 28.378906 21.464844 1.574219 12.183594-5.097656 23.941406-16.367187 28.839844-8.636719 3.855469-16.375 9.472656-22.71875 16.492187-5.652344 9.734375-7.75 21.132813-5.933594 32.246094.820313 8.039062 2.363281 15.988281 4.605469 23.75 1.242188 4.625 2.625 9.109375 4.097656 13.679688l-.015625-.054688c.003907 0 .394531 1.179688.863281 2.699219.097657.308593.21875.703125.359376 1.148437 19.527343-7.96875 41.121093-9.347656 61.503906-3.929687l2.253906.648437c2.664062.753906 5.449219 1.554688 8.234375 2.507813 3.769531 1.097656 7.394531 2.636719 10.804687 4.582031 74.953126 42.609375 116.085938 138.765625 130.003907 216.328125 30.992187 12.234375 66.84375 29.828125 84.925781 58.730469 27.703125-2.207032 57.910156-2.777344 79.09375 6.496094.292969.128906.582031.273437.855469.433593 3.992187 2.324219 16.132812 9.390625 15.972656 20.980469-.167969 12.171875-13.984375 19.703125-18.519531 22.179688-38.085938 19.234374-79.617188 30.707031-122.175782 33.742187-5.65625.335937-11.320312.5-16.992187.5zm0 0"/><path d="m162.65625 410.964844c-1.746094 0-3.449219-.546875-4.867188-1.5625-26.816406-19.101563-51.660156-40.828125-74.164062-64.855469-3.070312-3.40625-2.839844-8.648437.519531-11.769531s8.601563-2.96875 11.773438.34375c21.738281 23.199218 45.730469 44.171875 71.625 62.613281 2.972656 2.121094 4.230469 5.921875 3.117187 9.398437-1.117187 3.476563-4.351562 5.832032-8.003906 5.828126zm0 0"/><path d="m267.535156 460.648438c-.6875 0-1.371094-.082032-2.039062-.25-20.71875-5.253907-40.816406-12.710938-59.945313-22.246094-4.089843-2.085938-5.746093-7.074219-3.710937-11.191406 2.035156-4.117188 7-5.835938 11.144531-3.855469 18.054687 9 37.019531 16.039062 56.570313 21.003906 4.109374 1.027344 6.804687 4.957031 6.292968 9.160156-.515625 4.203125-4.078125 7.363281-8.3125 7.375zm0 0"/><path d="m49.441406 263.050781c-1.300781.003907-2.597656-.148437-3.863281-.453125-15.324219-3.636718-22.023437-25.898437-21.722656-72.183594.03125-4.613281 3.78125-8.339843 8.394531-8.339843h.054688c4.636718.03125 8.367187 3.8125 8.339843 8.449219-.335937 51.265624 8.722657 55.71875 8.8125 55.742187 3.761719 1 19.074219-11.800781 40.621094-55.320313 1.5-2.980468 4.609375-4.804687 7.941406-4.65625 6.847657 1.140626 13.042969 4.742188 17.429688 10.128907 12.226562 12.726562 28.800781 20.382812 46.421875 21.433593-23.492188-33.238281-16.933594-58.65625-6.203125-74.832031 1.65625-2.5 4.523437-3.925781 7.515625-3.738281 2.992187.183594 5.660156 1.953125 6.996094 4.636719 1.335937 2.6875 1.136718 5.878906-.519532 8.378906-13.175781 19.859375-7.820312 42.335937 16.367188 68.714844 2.210937 2.40625 2.816406 5.882812 1.558594 8.898437-1.257813 3.019532-4.152344 5.03125-7.417969 5.15625-46.34375 1.78125-65.039063-15.878906-76.234375-26.429687-.839844-.789063-1.789063-1.6875-2.726563-2.527344-19.648437 37.832031-37.027343 56.941406-51.765625 56.941406zm0 0"/><path d="m338.773438 360.257812c-1.21875-.003906-2.425782-.269531-3.53125-.78125-9.84375-6.707031-17.542969-16.113281-22.164063-27.09375-.59375-2.40625-.09375-4.953124 1.367187-6.953124 1.460938-2.003907 3.734376-3.257813 6.207032-3.425782l3.6875-.253906c13.332031-4.964844 23.40625-13.003906 31.996094-34.6875-11.65625 4.375-23.851563 7.136719-36.253907 8.207031-4.246093.285157-8.507812.132813-12.726562-.445312-1.828125-.308594-3.558594-1.054688-5.039063-2.171875-1.179687-1.007813-2.097656-2.285156-2.675781-3.722656-.671875-1.625-1.167969-3.207032-1.648437-4.792969-.285157-.949219-.570313-1.894531-.921876-2.816407-1.042968-2.742187-2.117187-5.449218-3.21875-8.152343-2.183593-5.332031-4.503906-10.601563-6.902343-15.839844-.488281-1.015625-.820313-2.09375-.988281-3.207031-.207032-4.171875 1.273437-8.25 4.109374-11.3125 1.753907-2.378906 3.859376-4.476563 6.242188-6.230469 6.675781-4.652344 14.878906-6.589844 22.933594-5.417969 34.015625 4.550782 57.933594.855469 71.066406-10.996094 6.738281-6.394531 11.164062-14.847656 12.578125-24.03125-5.136719 3.859376-10.859375 6.878907-16.945313 8.941407-13.042968 3.253906-26.800781 2.027343-39.066406-3.480469l-1.425781-.472656c-9.527344-3.238282-19.265625-5.804688-29.152344-7.683594-12.496093-1.75-25.164062-1.886719-37.695312-.398438-5.476563.34375-10.96875.316407-16.441407-.078124-3.050781-.265626-6.078124-.742188-9.058593-1.4375l-2.609375-.527344c-1.117188-.191406-2.203125-.546875-3.214844-1.054688-2.117188-1.175781-3.875-2.898437-5.089844-4.992187-1.253906-1.628907-2.304687-2.898438-3.367187-4.152344-2.980469-3.492187-6.3125-7.085937-9.894531-10.667969-1.316407-1.496094-2.351563-2.511718-3.441407-3.609375-1.449219-1.449219-2.316406-3.375-2.445312-5.417969-.65625-10.636718 6.269531-20.597656 14.636719-30.886718-9.824219.832031-18.824219 5.835937-24.71875 13.738281-2.757813 3.6875-7.96875 4.464844-11.683594 1.742187-6.101563-4.460937-12.449219-8.578124-19.015625-12.328124-4.507813-2.484376-9.257813-4.503907-14.175781-6.03125-4.289063-1.429688-6.675782-5.996094-5.402344-10.332032 7.910156-27.828125 27.40625-50.90625 53.515625-63.359375 39.925781-19.640625 94.730469-17.703125 154.320312 5.445313 2.90625 1.132812 4.949219 3.785156 5.296875 6.886718.347656 3.097657-1.054687 6.136719-3.636718 7.886719-20.628907 13.949219-31.5 30.007813-29.082032 42.945313 1.875 8.328125 8.621094 14.679687 17.046875 16.050781 12.183594 2.773437 30.648438-1.679687 46.070313-22.585937 26.554687-35.984376 50.714844-37.824219 76.296875-39.777344 4.078125-.308594 8.25-.625 12.554687-1.101563 3.597656-.394531 7.042969 1.558594 8.550782 4.847657 1.507812 3.289062.738281 7.175781-1.910157 9.640624-29.371093 25.683594-46.585937 62.53125-47.445312 101.539063-.132813 5.949219-.179688 12.042969-.222657 18.1875-.207031 27.894531-.414062 56.738281-9.160156 83.695313-15.046875 46.789062-65.300781 70.613281-105.621094 72.941406-.160156.003906-.324218.011718-.484374.011718zm-4.464844-24.445312c2.0625 2.664062 4.328125 5.164062 6.78125 7.472656 35.285156-3.007812 76.058594-24.578125 87.8125-61.140625 7.949218-24.511719 8.15625-52.039062 8.347656-78.660156.046875-6.230469.089844-12.414063.234375-18.507813.777344-35.652343 13.902344-69.929687 37.132813-96.988281-19.898438 1.929688-35.753907 6.308594-54.890626 32.246094-20.246093 27.433594-46.007812 32.941406-63.335937 28.980469-14.941406-2.867188-26.695313-14.4375-29.796875-29.332032-3.089844-16.566406 5.417969-34.390624 23.609375-50.296874-49.492187-16.515626-94.03125-16.910157-126.59375-.882813-19.402344 9.234375-34.535156 25.550781-42.285156 45.59375 3.207031 1.289063 6.324219 2.800781 9.320312 4.523437 4.914063 2.816407 9.710938 5.804688 14.304688 8.921876 13.53125-13.222657 33.285156-17.835938 51.269531-11.972657 2.679688.796875 4.789062 2.875 5.621094 5.542969.832031 2.667969.28125 5.578125-1.46875 7.757812-1.792969 2.234376-3.640625 4.449219-5.464844 6.644532-6.132812 6.355468-11.136719 13.710937-14.796875 21.75.394531.417968.769531.839844 1.128906 1.257812 3.457031 3.421875 7.09375 7.34375 10.363281 11.183594 1.175782 1.382812 2.324219 2.773438 3.445313 4.171875.207031.25.414063.53125.625.835937l.871094.179688c2.21875.527344 4.472656.898438 6.742187 1.117188 4.679688.339843 9.378906.371093 14.066406.082031 13.9375-1.605469 28.023438-1.398438 41.90625.613281 10.660157 2.015625 21.167969 4.78125 31.445313 8.265625l1.46875.488281c8.882813 4.242188 18.910156 5.457032 28.546875 3.453125 9.773438-3.980469 18.449219-10.242187 25.304688-18.265625.128906-.132812.265624-.265625.40625-.390625l.269531-.285156c2.367187-2.367187 5.914062-3.101563 9.027343-1.867187 3.113282 1.234374 5.195313 4.199218 5.296876 7.542968.792968 25.660156-5.570313 44.230469-19.464844 56.773438-17.207032 15.53125-44.875 20.480468-84.546875 15.179687-3.769531-.597656-7.625.238281-10.808594 2.34375-.972656.710938-1.832031 1.566407-2.554687 2.53125l-.230469.308594c2.082031 4.613281 4.078125 9.199219 5.972656 13.835937 1.152344 2.828126 2.273437 5.667969 3.359375 8.519532.40625 1.058594.753906 2.144531 1.089844 3.234375 1.726562.074219 3.457031.054687 5.179687-.058594 15.855469-1.914063 31.34375-6.132813 45.976563-12.527344l1.863281-.707031c2.96875-1.117188 6.316406-.46875 8.648437 1.679688 2.332032 2.148437 3.257813 5.429687 2.386719 8.476562-9.527343 33.40625-21.996093 50.910156-43.585937 60.375zm0 0"/><path d="m231.421875 169.011719c-2.222656.011719-4.355469-.863281-5.929687-2.433594-1.574219-1.566406-2.460938-3.695313-2.460938-5.917969v-.082031c.023438-4.628906 3.792969-8.367187 8.421875-8.351563 4.628906.019532 8.371094 3.78125 8.363281 8.410157-.007812 4.628906-3.765625 8.378906-8.394531 8.378906zm0 0"/><path d="m170.65625 128.007812c-4.636719 0-8.394531-3.757812-8.394531-8.390624.007812-.953126.167969-1.894532.476562-2.796876 1.257813-3.941406 5.199219-6.382812 9.285157-5.746093 4.089843.632812 7.105468 4.152343 7.109374 8.289062-.007812.953125-.171874 1.894531-.480468 2.796875-1.109375 3.484375-4.34375 5.847656-7.996094 5.847656zm0 0"/></g></svg>