<svg height="512pt" viewBox="0 0 512 512" width="512pt" xmlns="http://www.w3.org/2000/svg"><path d="m380.679688 229.605469-28.980469 7.773437-1.039063-3.882812h-189.320312l-1.039063 3.882812-28.980469-7.773437 11.050782-41.625 8.007812-30.160157 25.460938-95.929687c9.679687-36.4375 42.640625-61.890625 80.160156-61.890625s70.480469 25.453125 80.160156 61.890625l25.460938 95.929687 8.007812 30.160157zm0 0" fill="#ff4f19"/><path d="m350.660156 233.496094h-94.660156v-233.496094c37.519531 0 70.480469 25.453125 80.160156 61.890625l25.460938 95.929687 8.007812 30.160157 11.050782 41.625-28.980469 7.773437zm0 0" fill="#e60020"/><path d="m369.230469 336.675781v61.5c0 62.769531-50.789063 113.824219-113.230469 113.824219s-113.230469-51.054688-113.230469-113.824219v-61.5zm0 0" fill="#ffdba9"/><path d="m369.230469 336.675781v61.5c0 62.769531-50.789063 113.824219-113.230469 113.824219v-175.324219zm0 0" fill="#ffc372"/><path d="m512 228.050781v56.464844c0 9.972656-2.011719 19.472656-5.640625 28.125-10.949219 26.066406-36.648437 44.421875-66.53125 44.421875h-367.65625c-29.882813 0-55.582031-18.355469-66.53125-44.421875-3.628906-8.652344-5.640625-18.152344-5.640625-28.125v-56.464844zm0 0" fill="#82e370"/><path d="m512 228.050781v56.464844c0 9.972656-2.011719 19.472656-5.640625 28.125-10.949219 26.066406-36.648437 44.421875-66.53125 44.421875h-183.828125v-129.011719zm0 0" fill="#00a651"/><path d="m369.628906 187.980469h-227.257812l8.007812-30.160157h211.242188zm0 0" fill="#fdd300"/><path d="m512 282.675781v1.839844c0 9.972656-2.011719 19.472656-5.640625 28.125l-39.960937-14.050781-52.597657 18.496094-52.601562-18.496094-52.597657 18.496094-52.589843-18.496094h-.011719l-52.589844 18.496094-52.601562-18.496094-52.597656 18.496094-52.609376-18.496094-39.960937 14.050781c-3.628906-8.652344-5.640625-18.152344-5.640625-28.125v-1.839844l45.601562-16.042969 52.609376 18.503907 52.597656-18.503907 52.601562 18.503907 52.589844-18.503907h.011719l52.589843 18.507813 52.597657-18.507813 52.601562 18.507813 52.597657-18.507813zm0 0" fill="#00a651"/><path d="m512 282.675781v1.839844c0 9.972656-2.011719 19.472656-5.640625 28.125l-39.960937-14.050781-52.597657 18.496094-52.601562-18.496094-52.597657 18.496094-52.589843-18.496094h-.011719v-31.957032h.011719l52.589843 18.507813 52.597657-18.507813 52.601562 18.507813 52.597657-18.507813zm0 0" fill="#007539"/><path d="m369.628906 187.980469h-113.628906v-30.160157h105.621094zm0 0" fill="#ffa920"/></svg>